<mxfile host="Electron" agent="Mozilla/5.0 (Windows NT 10.0; Win64; x64) AppleWebKit/537.36 (KHTML, like Gecko) draw.io/24.7.17 Chrome/128.0.6613.36 Electron/32.0.1 Safari/537.36" version="24.7.17">
  <diagram id="R2lEEEUBdFMjLlhIrx00" name="Page-1">
    <mxGraphModel dx="1448" dy="1002" grid="1" gridSize="10" guides="1" tooltips="1" connect="1" arrows="1" fold="1" page="1" pageScale="1" pageWidth="850" pageHeight="1100" math="0" shadow="0" extFonts="Permanent Marker^https://fonts.googleapis.com/css?family=Permanent+Marker">
      <root>
        <mxCell id="0" />
        <mxCell id="1" parent="0" />
        <mxCell id="QaikbUGUzIB4GC87s4cR-11" style="edgeStyle=orthogonalEdgeStyle;rounded=0;orthogonalLoop=1;jettySize=auto;html=1;exitX=0;exitY=0.5;exitDx=0;exitDy=0;entryX=0.5;entryY=1;entryDx=0;entryDy=0;endArrow=none;endFill=0;" edge="1" parent="1" source="QaikbUGUzIB4GC87s4cR-1" target="QaikbUGUzIB4GC87s4cR-3">
          <mxGeometry relative="1" as="geometry" />
        </mxCell>
        <mxCell id="QaikbUGUzIB4GC87s4cR-12" style="edgeStyle=orthogonalEdgeStyle;rounded=0;orthogonalLoop=1;jettySize=auto;html=1;exitX=1;exitY=0.5;exitDx=0;exitDy=0;endArrow=none;endFill=0;" edge="1" parent="1" source="QaikbUGUzIB4GC87s4cR-1" target="QaikbUGUzIB4GC87s4cR-5">
          <mxGeometry relative="1" as="geometry" />
        </mxCell>
        <mxCell id="QaikbUGUzIB4GC87s4cR-1" value="Person" style="rounded=0;whiteSpace=wrap;html=1;" vertex="1" parent="1">
          <mxGeometry x="20" y="460" width="120" height="60" as="geometry" />
        </mxCell>
        <mxCell id="QaikbUGUzIB4GC87s4cR-14" style="edgeStyle=orthogonalEdgeStyle;rounded=0;orthogonalLoop=1;jettySize=auto;html=1;exitX=0.5;exitY=1;exitDx=0;exitDy=0;entryX=0.5;entryY=0;entryDx=0;entryDy=0;endArrow=none;endFill=0;" edge="1" parent="1" source="QaikbUGUzIB4GC87s4cR-2" target="QaikbUGUzIB4GC87s4cR-13">
          <mxGeometry relative="1" as="geometry" />
        </mxCell>
        <mxCell id="QaikbUGUzIB4GC87s4cR-16" style="edgeStyle=orthogonalEdgeStyle;rounded=0;orthogonalLoop=1;jettySize=auto;html=1;exitX=0.25;exitY=1;exitDx=0;exitDy=0;entryX=0.5;entryY=0;entryDx=0;entryDy=0;endArrow=none;endFill=0;" edge="1" parent="1" source="QaikbUGUzIB4GC87s4cR-2" target="QaikbUGUzIB4GC87s4cR-15">
          <mxGeometry relative="1" as="geometry" />
        </mxCell>
        <mxCell id="QaikbUGUzIB4GC87s4cR-19" style="edgeStyle=orthogonalEdgeStyle;rounded=0;orthogonalLoop=1;jettySize=auto;html=1;exitX=0.75;exitY=1;exitDx=0;exitDy=0;endArrow=none;endFill=0;" edge="1" parent="1" source="QaikbUGUzIB4GC87s4cR-2" target="QaikbUGUzIB4GC87s4cR-17">
          <mxGeometry relative="1" as="geometry" />
        </mxCell>
        <mxCell id="QaikbUGUzIB4GC87s4cR-38" style="edgeStyle=orthogonalEdgeStyle;rounded=0;orthogonalLoop=1;jettySize=auto;html=1;exitX=0.5;exitY=0;exitDx=0;exitDy=0;entryX=0;entryY=0.75;entryDx=0;entryDy=0;endArrow=none;endFill=0;" edge="1" parent="1" source="QaikbUGUzIB4GC87s4cR-2" target="QaikbUGUzIB4GC87s4cR-7">
          <mxGeometry relative="1" as="geometry" />
        </mxCell>
        <mxCell id="QaikbUGUzIB4GC87s4cR-2" value="Member" style="rounded=0;whiteSpace=wrap;html=1;" vertex="1" parent="1">
          <mxGeometry x="20" y="610" width="120" height="60" as="geometry" />
        </mxCell>
        <mxCell id="QaikbUGUzIB4GC87s4cR-3" value="&lt;u&gt;Phone_Number&lt;/u&gt;" style="ellipse;whiteSpace=wrap;html=1;" vertex="1" parent="1">
          <mxGeometry x="-110" y="390" width="120" height="40" as="geometry" />
        </mxCell>
        <mxCell id="QaikbUGUzIB4GC87s4cR-5" value="Name" style="ellipse;whiteSpace=wrap;html=1;" vertex="1" parent="1">
          <mxGeometry x="170" y="390" width="70" height="40" as="geometry" />
        </mxCell>
        <mxCell id="QaikbUGUzIB4GC87s4cR-8" value="" style="edgeStyle=orthogonalEdgeStyle;rounded=0;orthogonalLoop=1;jettySize=auto;html=1;endArrow=none;endFill=0;" edge="1" parent="1" source="QaikbUGUzIB4GC87s4cR-7" target="QaikbUGUzIB4GC87s4cR-1">
          <mxGeometry relative="1" as="geometry" />
        </mxCell>
        <mxCell id="QaikbUGUzIB4GC87s4cR-7" value="" style="triangle;whiteSpace=wrap;html=1;rotation=-90;" vertex="1" parent="1">
          <mxGeometry x="65" y="540" width="30" height="40" as="geometry" />
        </mxCell>
        <mxCell id="QaikbUGUzIB4GC87s4cR-13" value="&lt;u&gt;Member_ID&lt;/u&gt;" style="ellipse;whiteSpace=wrap;html=1;" vertex="1" parent="1">
          <mxGeometry x="45" y="730" width="70" height="40" as="geometry" />
        </mxCell>
        <mxCell id="QaikbUGUzIB4GC87s4cR-15" value="Birth_Date" style="ellipse;whiteSpace=wrap;html=1;" vertex="1" parent="1">
          <mxGeometry x="-60" y="730" width="70" height="40" as="geometry" />
        </mxCell>
        <mxCell id="QaikbUGUzIB4GC87s4cR-17" value="Registration_Date" style="ellipse;whiteSpace=wrap;html=1;" vertex="1" parent="1">
          <mxGeometry x="150" y="730" width="110" height="40" as="geometry" />
        </mxCell>
        <mxCell id="QaikbUGUzIB4GC87s4cR-21" value="" style="edgeStyle=orthogonalEdgeStyle;rounded=0;orthogonalLoop=1;jettySize=auto;html=1;endArrow=none;endFill=0;" edge="1" parent="1" source="QaikbUGUzIB4GC87s4cR-20" target="QaikbUGUzIB4GC87s4cR-2">
          <mxGeometry relative="1" as="geometry" />
        </mxCell>
        <mxCell id="QaikbUGUzIB4GC87s4cR-20" value="Age" style="ellipse;whiteSpace=wrap;html=1;align=center;dashed=1;" vertex="1" parent="1">
          <mxGeometry x="-100" y="620" width="60" height="40" as="geometry" />
        </mxCell>
        <mxCell id="QaikbUGUzIB4GC87s4cR-23" value="" style="edgeStyle=orthogonalEdgeStyle;rounded=0;orthogonalLoop=1;jettySize=auto;html=1;endArrow=none;endFill=0;" edge="1" parent="1" source="QaikbUGUzIB4GC87s4cR-22" target="QaikbUGUzIB4GC87s4cR-2">
          <mxGeometry relative="1" as="geometry" />
        </mxCell>
        <mxCell id="QaikbUGUzIB4GC87s4cR-22" value="Address" style="ellipse;whiteSpace=wrap;html=1;align=center;" vertex="1" parent="1">
          <mxGeometry x="190" y="620" width="100" height="40" as="geometry" />
        </mxCell>
        <mxCell id="QaikbUGUzIB4GC87s4cR-27" value="" style="edgeStyle=orthogonalEdgeStyle;rounded=0;orthogonalLoop=1;jettySize=auto;html=1;endArrow=none;endFill=0;" edge="1" parent="1" source="QaikbUGUzIB4GC87s4cR-24" target="QaikbUGUzIB4GC87s4cR-22">
          <mxGeometry relative="1" as="geometry" />
        </mxCell>
        <mxCell id="QaikbUGUzIB4GC87s4cR-24" value="City" style="ellipse;whiteSpace=wrap;html=1;align=center;" vertex="1" parent="1">
          <mxGeometry x="320" y="570" width="60" height="40" as="geometry" />
        </mxCell>
        <mxCell id="QaikbUGUzIB4GC87s4cR-28" value="" style="edgeStyle=orthogonalEdgeStyle;rounded=0;orthogonalLoop=1;jettySize=auto;html=1;endArrow=none;endFill=0;" edge="1" parent="1" source="QaikbUGUzIB4GC87s4cR-25" target="QaikbUGUzIB4GC87s4cR-22">
          <mxGeometry relative="1" as="geometry" />
        </mxCell>
        <mxCell id="QaikbUGUzIB4GC87s4cR-25" value="Street" style="ellipse;whiteSpace=wrap;html=1;align=center;" vertex="1" parent="1">
          <mxGeometry x="320" y="620" width="60" height="40" as="geometry" />
        </mxCell>
        <mxCell id="QaikbUGUzIB4GC87s4cR-29" value="" style="edgeStyle=orthogonalEdgeStyle;rounded=0;orthogonalLoop=1;jettySize=auto;html=1;endArrow=none;endFill=0;" edge="1" parent="1" source="QaikbUGUzIB4GC87s4cR-26" target="QaikbUGUzIB4GC87s4cR-22">
          <mxGeometry relative="1" as="geometry" />
        </mxCell>
        <mxCell id="QaikbUGUzIB4GC87s4cR-26" value="Zip_Code" style="ellipse;whiteSpace=wrap;html=1;align=center;" vertex="1" parent="1">
          <mxGeometry x="320" y="670" width="60" height="40" as="geometry" />
        </mxCell>
        <mxCell id="QaikbUGUzIB4GC87s4cR-37" style="edgeStyle=orthogonalEdgeStyle;rounded=0;orthogonalLoop=1;jettySize=auto;html=1;exitX=1;exitY=0.5;exitDx=0;exitDy=0;entryX=0;entryY=0.25;entryDx=0;entryDy=0;endArrow=none;endFill=0;" edge="1" parent="1" source="QaikbUGUzIB4GC87s4cR-30" target="QaikbUGUzIB4GC87s4cR-7">
          <mxGeometry relative="1" as="geometry" />
        </mxCell>
        <mxCell id="QaikbUGUzIB4GC87s4cR-30" value="Admin" style="rounded=0;whiteSpace=wrap;html=1;" vertex="1" parent="1">
          <mxGeometry x="-120" y="530" width="120" height="60" as="geometry" />
        </mxCell>
        <mxCell id="QaikbUGUzIB4GC87s4cR-40" value="" style="edgeStyle=orthogonalEdgeStyle;rounded=0;orthogonalLoop=1;jettySize=auto;html=1;endArrow=none;endFill=0;" edge="1" parent="1" source="QaikbUGUzIB4GC87s4cR-39" target="QaikbUGUzIB4GC87s4cR-30">
          <mxGeometry relative="1" as="geometry" />
        </mxCell>
        <mxCell id="QaikbUGUzIB4GC87s4cR-39" value="&lt;u&gt;Admin_ID&lt;/u&gt;" style="ellipse;whiteSpace=wrap;html=1;align=center;" vertex="1" parent="1">
          <mxGeometry x="-220" y="540" width="60" height="40" as="geometry" />
        </mxCell>
        <mxCell id="QaikbUGUzIB4GC87s4cR-84" style="edgeStyle=orthogonalEdgeStyle;rounded=0;orthogonalLoop=1;jettySize=auto;html=1;exitX=0.75;exitY=0;exitDx=0;exitDy=0;entryX=0.5;entryY=1;entryDx=0;entryDy=0;endArrow=none;endFill=0;" edge="1" parent="1" source="QaikbUGUzIB4GC87s4cR-41" target="QaikbUGUzIB4GC87s4cR-82">
          <mxGeometry relative="1" as="geometry">
            <Array as="points">
              <mxPoint x="-385" y="630" />
              <mxPoint x="-235" y="630" />
            </Array>
          </mxGeometry>
        </mxCell>
        <mxCell id="QaikbUGUzIB4GC87s4cR-41" value="Book" style="rounded=0;whiteSpace=wrap;html=1;" vertex="1" parent="1">
          <mxGeometry x="-475" y="660" width="120" height="60" as="geometry" />
        </mxCell>
        <mxCell id="QaikbUGUzIB4GC87s4cR-43" value="" style="edgeStyle=orthogonalEdgeStyle;rounded=0;orthogonalLoop=1;jettySize=auto;html=1;endArrow=none;endFill=0;" edge="1" parent="1" source="QaikbUGUzIB4GC87s4cR-42" target="QaikbUGUzIB4GC87s4cR-41">
          <mxGeometry relative="1" as="geometry" />
        </mxCell>
        <mxCell id="QaikbUGUzIB4GC87s4cR-42" value="Title" style="ellipse;whiteSpace=wrap;html=1;align=center;" vertex="1" parent="1">
          <mxGeometry x="-445" y="770" width="60" height="40" as="geometry" />
        </mxCell>
        <mxCell id="QaikbUGUzIB4GC87s4cR-45" value="" style="edgeStyle=orthogonalEdgeStyle;rounded=0;orthogonalLoop=1;jettySize=auto;html=1;endArrow=none;endFill=0;" edge="1" parent="1" source="QaikbUGUzIB4GC87s4cR-44" target="QaikbUGUzIB4GC87s4cR-41">
          <mxGeometry relative="1" as="geometry">
            <Array as="points">
              <mxPoint x="-340" y="745" />
              <mxPoint x="-390" y="745" />
            </Array>
          </mxGeometry>
        </mxCell>
        <mxCell id="QaikbUGUzIB4GC87s4cR-44" value="&lt;u&gt;Book_ID&lt;/u&gt;" style="ellipse;whiteSpace=wrap;html=1;align=center;" vertex="1" parent="1">
          <mxGeometry x="-370" y="770" width="60" height="40" as="geometry" />
        </mxCell>
        <mxCell id="QaikbUGUzIB4GC87s4cR-47" style="edgeStyle=orthogonalEdgeStyle;rounded=0;orthogonalLoop=1;jettySize=auto;html=1;exitX=0.5;exitY=0;exitDx=0;exitDy=0;entryX=0.25;entryY=1;entryDx=0;entryDy=0;endArrow=none;endFill=0;" edge="1" parent="1" source="QaikbUGUzIB4GC87s4cR-46" target="QaikbUGUzIB4GC87s4cR-41">
          <mxGeometry relative="1" as="geometry" />
        </mxCell>
        <mxCell id="QaikbUGUzIB4GC87s4cR-46" value="Number_Of_Page" style="ellipse;whiteSpace=wrap;html=1;align=center;" vertex="1" parent="1">
          <mxGeometry x="-570" y="770" width="110" height="40" as="geometry" />
        </mxCell>
        <mxCell id="QaikbUGUzIB4GC87s4cR-49" style="edgeStyle=orthogonalEdgeStyle;rounded=0;orthogonalLoop=1;jettySize=auto;html=1;exitX=0.5;exitY=0;exitDx=0;exitDy=0;entryX=1;entryY=0.5;entryDx=0;entryDy=0;endArrow=none;endFill=0;" edge="1" parent="1" source="QaikbUGUzIB4GC87s4cR-48" target="QaikbUGUzIB4GC87s4cR-41">
          <mxGeometry relative="1" as="geometry" />
        </mxCell>
        <mxCell id="QaikbUGUzIB4GC87s4cR-48" value="Stock_Quantity" style="ellipse;whiteSpace=wrap;html=1;align=center;" vertex="1" parent="1">
          <mxGeometry x="-290" y="770" width="100" height="40" as="geometry" />
        </mxCell>
        <mxCell id="QaikbUGUzIB4GC87s4cR-51" style="edgeStyle=orthogonalEdgeStyle;rounded=0;orthogonalLoop=1;jettySize=auto;html=1;exitX=0.5;exitY=0;exitDx=0;exitDy=0;entryX=0;entryY=0.5;entryDx=0;entryDy=0;endArrow=none;endFill=0;" edge="1" parent="1" source="QaikbUGUzIB4GC87s4cR-50" target="QaikbUGUzIB4GC87s4cR-41">
          <mxGeometry relative="1" as="geometry" />
        </mxCell>
        <mxCell id="QaikbUGUzIB4GC87s4cR-50" value="Publication_Date" style="ellipse;whiteSpace=wrap;html=1;align=center;" vertex="1" parent="1">
          <mxGeometry x="-690" y="770" width="100" height="40" as="geometry" />
        </mxCell>
        <mxCell id="QaikbUGUzIB4GC87s4cR-53" style="edgeStyle=orthogonalEdgeStyle;rounded=0;orthogonalLoop=1;jettySize=auto;html=1;exitX=0;exitY=0.5;exitDx=0;exitDy=0;entryX=1;entryY=0.75;entryDx=0;entryDy=0;endArrow=none;endFill=0;" edge="1" parent="1" source="QaikbUGUzIB4GC87s4cR-52" target="QaikbUGUzIB4GC87s4cR-41">
          <mxGeometry relative="1" as="geometry" />
        </mxCell>
        <mxCell id="QaikbUGUzIB4GC87s4cR-52" value="ISBN" style="ellipse;whiteSpace=wrap;html=1;align=center;" vertex="1" parent="1">
          <mxGeometry x="-320" y="710" width="60" height="40" as="geometry" />
        </mxCell>
        <mxCell id="QaikbUGUzIB4GC87s4cR-54" value="Author" style="rounded=0;whiteSpace=wrap;html=1;" vertex="1" parent="1">
          <mxGeometry x="-475" y="480" width="120" height="60" as="geometry" />
        </mxCell>
        <mxCell id="QaikbUGUzIB4GC87s4cR-60" value="" style="edgeStyle=orthogonalEdgeStyle;rounded=0;orthogonalLoop=1;jettySize=auto;html=1;endArrow=none;endFill=0;" edge="1" parent="1" source="QaikbUGUzIB4GC87s4cR-56" target="QaikbUGUzIB4GC87s4cR-54">
          <mxGeometry relative="1" as="geometry" />
        </mxCell>
        <mxCell id="QaikbUGUzIB4GC87s4cR-56" value="&lt;u&gt;Author_ID&lt;/u&gt;" style="ellipse;whiteSpace=wrap;html=1;align=center;" vertex="1" parent="1">
          <mxGeometry x="-445" y="400" width="60" height="40" as="geometry" />
        </mxCell>
        <mxCell id="QaikbUGUzIB4GC87s4cR-59" value="" style="edgeStyle=orthogonalEdgeStyle;rounded=0;orthogonalLoop=1;jettySize=auto;html=1;endArrow=none;endFill=0;" edge="1" parent="1" source="QaikbUGUzIB4GC87s4cR-57" target="QaikbUGUzIB4GC87s4cR-54">
          <mxGeometry relative="1" as="geometry">
            <Array as="points">
              <mxPoint x="-325" y="460" />
              <mxPoint x="-390" y="460" />
            </Array>
          </mxGeometry>
        </mxCell>
        <mxCell id="QaikbUGUzIB4GC87s4cR-57" value="Name" style="ellipse;whiteSpace=wrap;html=1;align=center;" vertex="1" parent="1">
          <mxGeometry x="-355" y="400" width="60" height="40" as="geometry" />
        </mxCell>
        <mxCell id="QaikbUGUzIB4GC87s4cR-61" value="" style="edgeStyle=orthogonalEdgeStyle;rounded=0;orthogonalLoop=1;jettySize=auto;html=1;endArrow=none;endFill=0;" edge="1" parent="1" source="QaikbUGUzIB4GC87s4cR-58" target="QaikbUGUzIB4GC87s4cR-54">
          <mxGeometry relative="1" as="geometry">
            <Array as="points">
              <mxPoint x="-505" y="460" />
              <mxPoint x="-440" y="460" />
            </Array>
          </mxGeometry>
        </mxCell>
        <mxCell id="QaikbUGUzIB4GC87s4cR-58" value="Nationality" style="ellipse;whiteSpace=wrap;html=1;align=center;" vertex="1" parent="1">
          <mxGeometry x="-535" y="400" width="60" height="40" as="geometry" />
        </mxCell>
        <mxCell id="QaikbUGUzIB4GC87s4cR-62" value="Category" style="rounded=0;whiteSpace=wrap;html=1;" vertex="1" parent="1">
          <mxGeometry x="-295" y="270" width="120" height="60" as="geometry" />
        </mxCell>
        <mxCell id="QaikbUGUzIB4GC87s4cR-68" style="edgeStyle=orthogonalEdgeStyle;rounded=0;orthogonalLoop=1;jettySize=auto;html=1;exitX=0.5;exitY=1;exitDx=0;exitDy=0;entryX=0.75;entryY=0;entryDx=0;entryDy=0;endArrow=none;endFill=0;" edge="1" parent="1" source="QaikbUGUzIB4GC87s4cR-64" target="QaikbUGUzIB4GC87s4cR-62">
          <mxGeometry relative="1" as="geometry" />
        </mxCell>
        <mxCell id="QaikbUGUzIB4GC87s4cR-64" value="&lt;u&gt;Category_ID&lt;/u&gt;" style="ellipse;whiteSpace=wrap;html=1;align=center;" vertex="1" parent="1">
          <mxGeometry x="-210" y="200" width="80" height="40" as="geometry" />
        </mxCell>
        <mxCell id="QaikbUGUzIB4GC87s4cR-69" style="edgeStyle=orthogonalEdgeStyle;rounded=0;orthogonalLoop=1;jettySize=auto;html=1;entryX=0.25;entryY=0;entryDx=0;entryDy=0;endArrow=none;endFill=0;" edge="1" parent="1" source="QaikbUGUzIB4GC87s4cR-65" target="QaikbUGUzIB4GC87s4cR-62">
          <mxGeometry relative="1" as="geometry" />
        </mxCell>
        <mxCell id="QaikbUGUzIB4GC87s4cR-65" value="Category_Name" style="ellipse;whiteSpace=wrap;html=1;align=center;" vertex="1" parent="1">
          <mxGeometry x="-345" y="200" width="110" height="40" as="geometry" />
        </mxCell>
        <mxCell id="QaikbUGUzIB4GC87s4cR-92" style="edgeStyle=orthogonalEdgeStyle;rounded=0;orthogonalLoop=1;jettySize=auto;html=1;exitX=0.5;exitY=0;exitDx=0;exitDy=0;entryX=0.5;entryY=1;entryDx=0;entryDy=0;endArrow=none;endFill=0;" edge="1" parent="1" source="QaikbUGUzIB4GC87s4cR-97" target="QaikbUGUzIB4GC87s4cR-98">
          <mxGeometry relative="1" as="geometry">
            <mxPoint x="-130" y="840" as="sourcePoint" />
            <mxPoint x="-130" y="760" as="targetPoint" />
          </mxGeometry>
        </mxCell>
        <mxCell id="QaikbUGUzIB4GC87s4cR-89" style="edgeStyle=orthogonalEdgeStyle;rounded=0;orthogonalLoop=1;jettySize=auto;html=1;exitX=0.5;exitY=0;exitDx=0;exitDy=0;entryX=0;entryY=0.5;entryDx=0;entryDy=0;endArrow=none;endFill=0;" edge="1" parent="1" source="QaikbUGUzIB4GC87s4cR-71" target="QaikbUGUzIB4GC87s4cR-97">
          <mxGeometry relative="1" as="geometry">
            <mxPoint x="-190" y="870" as="targetPoint" />
          </mxGeometry>
        </mxCell>
        <mxCell id="QaikbUGUzIB4GC87s4cR-71" value="&lt;u&gt;Loan_ID&lt;/u&gt;" style="ellipse;whiteSpace=wrap;html=1;align=center;" vertex="1" parent="1">
          <mxGeometry x="-240" y="920" width="60" height="40" as="geometry" />
        </mxCell>
        <mxCell id="QaikbUGUzIB4GC87s4cR-90" style="edgeStyle=orthogonalEdgeStyle;rounded=0;orthogonalLoop=1;jettySize=auto;html=1;exitX=0.5;exitY=0;exitDx=0;exitDy=0;entryX=0.5;entryY=1;entryDx=0;entryDy=0;endArrow=none;endFill=0;" edge="1" parent="1" source="QaikbUGUzIB4GC87s4cR-72" target="QaikbUGUzIB4GC87s4cR-97">
          <mxGeometry relative="1" as="geometry">
            <mxPoint x="-130" y="900" as="targetPoint" />
          </mxGeometry>
        </mxCell>
        <mxCell id="QaikbUGUzIB4GC87s4cR-72" value="Loan_Date" style="ellipse;whiteSpace=wrap;html=1;align=center;" vertex="1" parent="1">
          <mxGeometry x="-160" y="920" width="60" height="40" as="geometry" />
        </mxCell>
        <mxCell id="QaikbUGUzIB4GC87s4cR-91" style="edgeStyle=orthogonalEdgeStyle;rounded=0;orthogonalLoop=1;jettySize=auto;html=1;exitX=0.5;exitY=0;exitDx=0;exitDy=0;entryX=1;entryY=0.5;entryDx=0;entryDy=0;endArrow=none;endFill=0;" edge="1" parent="1" source="QaikbUGUzIB4GC87s4cR-73" target="QaikbUGUzIB4GC87s4cR-97">
          <mxGeometry relative="1" as="geometry">
            <mxPoint x="-70" y="870" as="targetPoint" />
          </mxGeometry>
        </mxCell>
        <mxCell id="QaikbUGUzIB4GC87s4cR-73" value="Return_Date" style="ellipse;whiteSpace=wrap;html=1;align=center;" vertex="1" parent="1">
          <mxGeometry x="-70" y="920" width="75" height="40" as="geometry" />
        </mxCell>
        <mxCell id="QaikbUGUzIB4GC87s4cR-78" value="" style="edgeStyle=orthogonalEdgeStyle;rounded=0;orthogonalLoop=1;jettySize=auto;html=1;endArrow=none;endFill=0;" edge="1" parent="1" source="QaikbUGUzIB4GC87s4cR-77" target="QaikbUGUzIB4GC87s4cR-54">
          <mxGeometry relative="1" as="geometry" />
        </mxCell>
        <mxCell id="QaikbUGUzIB4GC87s4cR-79" value="" style="edgeStyle=orthogonalEdgeStyle;rounded=0;orthogonalLoop=1;jettySize=auto;html=1;endArrow=none;endFill=0;" edge="1" parent="1" source="QaikbUGUzIB4GC87s4cR-77" target="QaikbUGUzIB4GC87s4cR-41">
          <mxGeometry relative="1" as="geometry" />
        </mxCell>
        <mxCell id="QaikbUGUzIB4GC87s4cR-77" value="Writes" style="shape=rhombus;perimeter=rhombusPerimeter;whiteSpace=wrap;html=1;align=center;" vertex="1" parent="1">
          <mxGeometry x="-457.5" y="590" width="85" height="30" as="geometry" />
        </mxCell>
        <mxCell id="QaikbUGUzIB4GC87s4cR-80" value="M" style="text;html=1;align=center;verticalAlign=middle;resizable=0;points=[];autosize=1;strokeColor=none;fillColor=none;" vertex="1" parent="1">
          <mxGeometry x="-422.5" y="640" width="30" height="30" as="geometry" />
        </mxCell>
        <mxCell id="QaikbUGUzIB4GC87s4cR-81" value="M" style="text;html=1;align=center;verticalAlign=middle;resizable=0;points=[];autosize=1;strokeColor=none;fillColor=none;" vertex="1" parent="1">
          <mxGeometry x="-422.5" y="535" width="30" height="30" as="geometry" />
        </mxCell>
        <mxCell id="QaikbUGUzIB4GC87s4cR-83" style="edgeStyle=orthogonalEdgeStyle;rounded=0;orthogonalLoop=1;jettySize=auto;html=1;exitX=0.5;exitY=0;exitDx=0;exitDy=0;endArrow=none;endFill=0;" edge="1" parent="1" source="QaikbUGUzIB4GC87s4cR-82" target="QaikbUGUzIB4GC87s4cR-62">
          <mxGeometry relative="1" as="geometry" />
        </mxCell>
        <mxCell id="QaikbUGUzIB4GC87s4cR-82" value="Blongs_To" style="shape=rhombus;perimeter=rhombusPerimeter;whiteSpace=wrap;html=1;align=center;" vertex="1" parent="1">
          <mxGeometry x="-277.5" y="490" width="85" height="30" as="geometry" />
        </mxCell>
        <mxCell id="QaikbUGUzIB4GC87s4cR-85" value="M" style="text;html=1;align=center;verticalAlign=middle;resizable=0;points=[];autosize=1;strokeColor=none;fillColor=none;" vertex="1" parent="1">
          <mxGeometry x="-392.5" y="640" width="30" height="30" as="geometry" />
        </mxCell>
        <mxCell id="QaikbUGUzIB4GC87s4cR-86" value="1" style="text;html=1;align=center;verticalAlign=middle;resizable=0;points=[];autosize=1;strokeColor=none;fillColor=none;" vertex="1" parent="1">
          <mxGeometry x="-240" y="330" width="30" height="30" as="geometry" />
        </mxCell>
        <mxCell id="QaikbUGUzIB4GC87s4cR-94" style="edgeStyle=orthogonalEdgeStyle;rounded=0;orthogonalLoop=1;jettySize=auto;html=1;exitX=0.5;exitY=0;exitDx=0;exitDy=0;entryX=0;entryY=0.75;entryDx=0;entryDy=0;endArrow=none;endFill=0;" edge="1" parent="1" source="QaikbUGUzIB4GC87s4cR-98" target="QaikbUGUzIB4GC87s4cR-2">
          <mxGeometry relative="1" as="geometry">
            <mxPoint x="-130" y="730" as="sourcePoint" />
            <Array as="points">
              <mxPoint x="-130" y="710" />
              <mxPoint x="-130" y="680" />
              <mxPoint y="680" />
              <mxPoint y="655" />
            </Array>
          </mxGeometry>
        </mxCell>
        <mxCell id="QaikbUGUzIB4GC87s4cR-95" value="M" style="text;html=1;align=center;verticalAlign=middle;resizable=0;points=[];autosize=1;strokeColor=none;fillColor=none;" vertex="1" parent="1">
          <mxGeometry x="-140" y="820" width="30" height="30" as="geometry" />
        </mxCell>
        <mxCell id="QaikbUGUzIB4GC87s4cR-96" value="1" style="text;html=1;align=center;verticalAlign=middle;resizable=0;points=[];autosize=1;strokeColor=none;fillColor=none;" vertex="1" parent="1">
          <mxGeometry x="-5" y="658" width="30" height="30" as="geometry" />
        </mxCell>
        <mxCell id="QaikbUGUzIB4GC87s4cR-97" value="Loan_Record" style="shape=ext;margin=3;double=1;whiteSpace=wrap;html=1;align=center;" vertex="1" parent="1">
          <mxGeometry x="-180" y="850" width="100" height="40" as="geometry" />
        </mxCell>
        <mxCell id="QaikbUGUzIB4GC87s4cR-98" value="Borrows" style="shape=rhombus;double=1;perimeter=rhombusPerimeter;whiteSpace=wrap;html=1;align=center;" vertex="1" parent="1">
          <mxGeometry x="-180" y="730" width="100" height="40" as="geometry" />
        </mxCell>
      </root>
    </mxGraphModel>
  </diagram>
</mxfile>
